
          <svg class="imandra-logo" width="100px" xmlns="http://www.w3.org/2000/svg" xmlns:xlink="http://www.w3.org/1999/xlink" viewBox="0 0 30.07 8.28">
              <defs>
                  <linearGradient id="logo-gradient-1" x1="7.5" y1="4.29" x2="0.37" y2="4.29" gradientUnits="userSpaceOnUse">
                  <stop offset="0" stop-color="#08f"/>
                  <stop offset="1" stop-color="#00f0b4"/>
                  </linearGradient>
                  <linearGradient id="logo-gradient-2" x1="16.12" y1="8.03" x2="16.12" y2="0.72" xlink:href="#logo-gradient-1"/>
                  <linearGradient id="logo-gradient-3" x1="22.45" y1="3.84" x2="30.07" y2="3.84" xlink:href="#logo-gradient-1"/>
              </defs>
              <path d="M3.78.45a3.85,3.85,0,0,0,0,7.69,3.85,3.85,0,0,0,0-7.69Z" style="fill-rule: evenodd;opacity: 0.8;fill: url(#logo-gradient-1)"/>
              <path d="M14.33,2.26V6.33a1.22,1.22,0,0,0,0,.27,1.8,1.8,0,1,0,3.58-.27V2.26a1.79,1.79,0,1,0-3.58,0" style="fill-rule: evenodd;opacity: 0.8;fill: url(#logo-gradient-2)"/>
              <path d="M26.22,0a3.85,3.85,0,0,0,.06,7.69h0A3.85,3.85,0,0,0,26.3,0Z" style="fill-rule: evenodd;opacity: 0.8;fill: url(#logo-gradient-3)"/>
          </svg>
